<svg xmlns="http://www.w3.org/2000/svg" version="1.1" xmlns:xlink="http://www.w3.org/1999/xlink" xmlns:svgjs="http://svgjs.dev/svgjs" style="overflow: hidden; height: 85vh;" viewBox="0 0 1920 1080" class="overflow-hidden rounded-md drop-shadow-lg transition duration-300"><rect width="1920" height="1080" fill="#bcbad3"/><g clip-path="url(&quot;#SvgjsClipPath2414&quot;)"><g transform="matrix(0.02007026740287588,1.14982484942985,-1.14982484942985,0.02007026740287588,1556.0532710633322,-568.1168642825617)"><path d="M0,-1080C9.921226196716622,-939.807223851636,61.30748962918702,-500.679213221606,59.52735718029973,-238.84334310981586C57.747224731412444,22.99252700197428,-4.397583001387548,220.26157652290738,-10.680794693323705,491.01522067074103C-16.96400638525986,761.7688648185747,20.047954579795505,1107.5143918889764,21.828087028682788,1385.6785217771862C23.60821947757007,1663.842651665396,3.6380145047804646,2030.9464202961976,0,2160L 1920 2160 L 1920 -1080 Z" fill="url(&quot;#SvgjsLinearGradient2406&quot;)"/><path d="M240,-1080C232.445046612277,-967.7378158485764,185.73002317801772,-630.9546023420193,194.67027967366192,-406.4268950914584C203.61053616930613,-181.89918784089755,293.4038347918723,53.23659481158549,293.6415389738652,267.166243503365C293.87924315585803,481.09589219514453,203.53552964456824,674.9384322610535,196.0965047656191,877.1509970592188C188.65747988666996,1079.363561857384,241.6901404944402,1266.6334651355592,249.00738970017034,1480.441632292356C256.3246389059005,1694.2497994491528,241.50123161669507,2046.740272048726,240,2160L 1920 2160 L 1920 -1080 Z" fill="url(&quot;#SvgjsLinearGradient2407&quot;)"/><path d="M480,-1080C484.0520445777692,-966.611472284757,503.9589908522377,-619.8247412398752,504.31226746661514,-399.6688337085423C504.66554408099256,-179.5129261772095,483.7127130158282,37.153730566899554,482.1196596862646,240.935445187997C480.526606356701,444.7171598090945,495.85056851515276,603.7367003403424,494.7539474892337,823.0214540180424C493.6573264633147,1042.3062076957424,477.9989247789559,1333.8142095905373,475.53993353075026,1556.643967254197C473.08094228254464,1779.4737249178565,479.2566555884584,2059.440661209033,480,2160L 1920 2160 L 1920 -1080 Z" fill="url(&quot;#SvgjsLinearGradient2408&quot;)"/><path d="M720,-1080C725.8538957390541,-996.4299171474831,748.5377435398653,-728.0639444627769,755.1233744343245,-578.5795028848988C761.7090053287837,-429.0950613070207,763.9829530813214,-326.1058135784591,759.5137853667551,-183.09335053273142C755.0446176521888,-40.08088748700371,731.3323151682835,121.06559742917764,728.3083681469268,279.4952753894674C725.2844211255701,437.9249533497572,751.0332326450077,609.8626222752572,741.3701032386148,767.4847172290071C731.7069738322218,925.1068121827569,667.9780211019668,1071.336021624173,670.3295917085688,1225.2278451119669C672.6811623151709,1379.1196685997606,747.2011254963222,1535.0402990077648,755.4795268782274,1690.8356581557703C763.7579282601325,1846.6310173037757,725.9132544797046,2081.805943025962,720,2160L 1920 2160 L 1920 -1080 Z" fill="url(&quot;#SvgjsLinearGradient2409&quot;)"/><path d="M960,-1080C966.0721435082143,-962.5419346780711,1002.9406556818344,-584.7074900814721,996.4328610492855,-375.25160806842655C989.9250664167366,-165.795726055381,922.4599013685267,-22.784945290227512,920.9532322047068,176.73529207827318C919.4465630408868,376.25552944677383,986.1971684699577,602.779870079159,987.3928460663657,821.8698161425776C988.5885236627737,1040.9597622059962,932.6927721275492,1268.2532711492147,928.127297783155,1491.274968458785C923.5618234387607,1714.2966657683553,954.6878829638591,2048.545828076464,960,2160L 1920 2160 L 1920 -1080 Z" fill="url(&quot;#SvgjsLinearGradient2410&quot;)"/><path d="M1200,-1080C1192.436170033028,-992.2566987044569,1160.4668792311743,-727.1868651227093,1154.617020198168,-553.5401922267412C1148.7671611651615,-379.8935193307731,1159.3614363567583,-215.99343126242093,1164.9008458019612,-38.11996262419112C1170.440255247164,139.7535060140387,1179.6723544493402,334.50387439272026,1187.853476869385,513.7006196026376C1196.03459928943,692.897364812555,1209.8213118654637,844.9614015930835,1213.9875803222299,1037.0605086353132C1218.153848778996,1229.1596156775431,1215.1823509970202,1479.1386799619022,1212.851087609982,1666.2952618560166C1210.5198242229437,1853.451843750131,1202.141847934997,2077.7158769760026,1200,2160L 1920 2160 L 1920 -1080 Z" fill="url(&quot;#SvgjsLinearGradient2411&quot;)"/><path d="M1440,-1080C1440.3050807399509,-967.6164491748498,1441.888421898562,-631.3159360394194,1441.8304844397046,-405.698695049099C1441.7725469808472,-180.08145405877863,1432.3725661082608,71.36639073791261,1439.6523752468556,273.7034459419221C1446.9321843854505,476.04050114593156,1476.5927971456329,593.0798813101618,1485.5093392712731,808.3236361749578C1494.4258813969134,1023.5673910397537,1500.736517879243,1339.8865811598575,1493.1516280006974,1565.165975130698C1485.566738122152,1790.4453691015383,1448.8586046667829,2060.8609958551165,1440,2160L 1920 2160 L 1920 -1080 Z" fill="url(&quot;#SvgjsLinearGradient2412&quot;)"/><path d="M1680,-1080C1683.1021720629278,-945.5916983385737,1704.4740117984045,-551.3004381920164,1698.6130323775674,-273.55019003144236C1692.7520529567303,4.200058129131662,1639.1225491980958,307.2461697040147,1644.834123474977,586.5014889634441C1650.5456977518584,865.7568082228736,1727.0214986180174,1139.7319736857082,1732.8824780388545,1401.9817255251342C1738.7434574596916,1664.23147736456,1688.813746339809,2033.6636209208557,1680,2160L 1920 2160 L 1920 -1080 Z" fill="url(&quot;#SvgjsLinearGradient2413&quot;)"/></g></g><defs><linearGradient x1="0.1" y1="0" x2="0" y2="1" id="SvgjsLinearGradient2406"><stop stop-color="#bcbad3" offset="0"/><stop stop-color="#babcd3" offset="0"/></linearGradient><linearGradient x1="0.1" y1="0" x2="0" y2="1" id="SvgjsLinearGradient2407"><stop stop-color="#c6c4d9" offset="0"/><stop stop-color="#c4c6d9" offset="0.125"/></linearGradient><linearGradient x1="0.1" y1="0" x2="0" y2="1" id="SvgjsLinearGradient2408"><stop stop-color="#cfcee0" offset="0"/><stop stop-color="#ced0e0" offset="0.25"/></linearGradient><linearGradient x1="0.1" y1="0" x2="0" y2="1" id="SvgjsLinearGradient2409"><stop stop-color="#d9d8e6" offset="0"/><stop stop-color="#d8d9e6" offset="0.375"/></linearGradient><linearGradient x1="0.1" y1="0" x2="0" y2="1" id="SvgjsLinearGradient2410"><stop stop-color="#e3e2ed" offset="0"/><stop stop-color="#e2e3ed" offset="0.5"/></linearGradient><linearGradient x1="0.1" y1="0" x2="0" y2="1" id="SvgjsLinearGradient2411"><stop stop-color="#edecf3" offset="0"/><stop stop-color="#ececf3" offset="0.625"/></linearGradient><linearGradient x1="0.1" y1="0" x2="0" y2="1" id="SvgjsLinearGradient2412"><stop stop-color="#f6f6f9" offset="0"/><stop stop-color="#f6f6f9" offset="0.75"/></linearGradient><linearGradient x1="0.1" y1="0" x2="0" y2="1" id="SvgjsLinearGradient2413"><stop stop-color="#ffffff" offset="0"/><stop stop-color="#ffffff" offset="0.875"/></linearGradient><clipPath id="SvgjsClipPath2414"><rect width="1920" height="1080"/></clipPath></defs></svg>